M48
; DRILL file {KiCad (6.0.0)} date Sun Jul 10 13:58:59 2022
; FORMAT={-:-/ absolute / inch / decimal}
; #@! TF.CreationDate,2022-07-10T13:58:59+09:30
; #@! TF.GenerationSoftware,Kicad,Pcbnew,(6.0.0)
; #@! TF.FileFunction,Plated,1,4,PTH
FMAT,2
INCH
; #@! TA.AperFunction,Plated,PTH,ViaDrill
T1C0.0157
; #@! TA.AperFunction,Plated,PTH,ComponentDrill
T2C0.0354
; #@! TA.AperFunction,Plated,PTH,ComponentDrill
T3C0.0394
; #@! TA.AperFunction,Plated,PTH,ComponentDrill
T4C0.0433
; #@! TA.AperFunction,Plated,PTH,ComponentDrill
T5C0.0453
; #@! TA.AperFunction,Plated,PTH,ComponentDrill
T6C0.0472
; #@! TA.AperFunction,Plated,PTH,ComponentDrill
T7C0.0630
; #@! TA.AperFunction,Plated,PTH,ComponentDrill
T8C0.0701
; #@! TA.AperFunction,Plated,PTH,ComponentDrill
T9C0.0719
; #@! TA.AperFunction,Plated,PTH,ComponentDrill
T10C0.1378
%
G90
G05
T1
X1.378Y-6.8898
X1.565Y-4.6457
X1.565Y-4.8622
X1.5748Y-6.3346
X1.5748Y-6.4961
X1.5748Y-7.2835
X1.5787Y-4.9803
X1.6634Y-5.5217
X1.6634Y-5.6004
X1.6634Y-5.6791
X1.6634Y-5.7579
X1.7402Y-5.3189
X1.7441Y-4.9803
X1.7815Y-3.622
X1.9587Y-5.5217
X1.9587Y-5.6004
X1.9587Y-5.6791
X1.9587Y-5.7579
X1.9685Y-6.4961
X1.9685Y-6.6929
X1.9685Y-6.8898
X1.9685Y-7.0866
X1.9685Y-7.2835
X1.9764Y-5.0551
X1.9764Y-5.1142
X1.9764Y-5.1732
X1.9764Y-5.2323
X2.0354Y-5.0551
X2.0354Y-5.1142
X2.0354Y-5.1732
X2.0354Y-5.2323
X2.0669Y-4.6457
X2.0945Y-5.0551
X2.0945Y-5.1142
X2.0945Y-5.1732
X2.0945Y-5.2323
X2.1358Y-3.622
X2.2539Y-5.5217
X2.2539Y-5.6004
X2.2539Y-5.6791
X2.2539Y-5.7579
X2.313Y-5.0295
X2.372Y-5.0295
X2.393Y-3.7588
X2.4409Y-5.0295
X2.4606Y-7.2835
X2.5Y-5.0295
X2.5492Y-5.5217
X2.5492Y-5.6004
X2.5492Y-5.6791
X2.5492Y-5.7579
X2.5787Y-3.1594
X2.6181Y-3.5335
X2.6181Y-4.0354
X2.6575Y-3.8386
X2.6575Y-6.2992
X2.6575Y-6.4961
X2.6575Y-6.6929
X2.6575Y-6.8898
X2.6575Y-7.0866
X2.6575Y-7.2835
X2.6673Y-1.565
X2.6673Y-2.126
X2.6673Y-2.6772
X2.688Y-2.9045
X2.7067Y-3.7992
X2.7165Y-5.0886
X2.7756Y-5.0886
X2.8061Y-3.2391
X2.8346Y-5.0886
X2.8445Y-5.5217
X2.8445Y-5.6004
X2.8445Y-5.6791
X2.8445Y-5.7579
X2.955Y-3.6141
X3.002Y-1.1713
X3.002Y-1.7323
X3.002Y-2.2835
X3.0512Y-2.9626
X3.0709Y-1.1319
X3.0709Y-5.0787
X3.0807Y-1.6929
X3.1102Y-3.2677
X3.1299Y-2.5197
X3.1299Y-5.0787
X3.1398Y-5.5217
X3.1398Y-5.6004
X3.1398Y-5.6791
X3.1398Y-5.7579
X3.1516Y-3.0918
X3.1673Y-2.814
X3.1673Y-2.9201
X3.1791Y-2.5394
X3.1988Y-2.2835
X3.1988Y-2.7362
X3.2023Y-3.614
X3.2579Y-3.0315
X3.2579Y-3.2185
X3.259Y-2.8548
X3.2603Y-3.2849
X3.2677Y-3.1102
X3.3194Y-2.2859
X3.3268Y-2.5984
X3.3661Y-2.5492
X3.3661Y-2.7461
X3.4311Y-3.3228
X3.435Y-2.2835
X3.435Y-2.9035
X3.435Y-2.9823
X3.4528Y-1.5276
X3.4547Y-3.614
X3.4547Y-3.9567
X3.4843Y-3.2382
X3.4843Y-3.0315
X3.4902Y-2.5059
X3.4941Y-2.4114
X3.5042Y-3.4267
X3.5236Y-3.4646
X3.564Y-3.4646
X3.5669Y-6.7795
X3.5748Y-6.4843
X3.5827Y-2.9213
X3.585Y-3.4978
X3.5906Y-4.813
X3.5925Y-4.8819
X3.5925Y-4.9508
X3.5925Y-5.0197
X3.5925Y-5.0886
X3.5925Y-5.1575
X3.6299Y-6.2402
X3.6339Y-6.0354
X3.6457Y-2.811
X3.6535Y-2.1606
X3.7146Y-1.9047
X3.7283Y-3.0079
X3.7331Y-2.6953
X3.7638Y-6.1732
X3.7697Y-5.5512
X3.7697Y-5.6594
X3.8504Y-6.1732
X3.8622Y-4.9567
X3.878Y-2.1209
X3.8976Y-3.937
X3.8976Y-4.1339
X3.8976Y-4.3307
X3.8976Y-4.5374
X3.9193Y-2.6134
X3.9252Y-3.0512
X3.939Y-2.5248
X3.9449Y-6.1732
X3.9665Y-3.5531
X3.9665Y-3.75
X4.0236Y-6.1732
X4.0354Y-2.6575
X4.0354Y-2.7067
X4.0551Y-2.5492
X4.0551Y-2.5886
X4.0551Y-2.7559
X4.0551Y-2.8219
X4.0551Y-2.9528
X4.0551Y-3.002
X4.063Y-3.0551
X4.065Y-2.4311
X4.065Y-2.4902
X4.065Y-5.5512
X4.065Y-5.6594
X4.1181Y-6.1732
X4.1339Y-2.1181
X4.1437Y-2.3327
X4.1811Y-3.3858
X4.1811Y-3.4488
X4.189Y-6.8425
X4.1929Y-6.4252
X4.2047Y-6.1732
X4.2421Y-1.3583
X4.2421Y-1.5748
X4.2598Y-3.3858
X4.2618Y-1.9094
X4.2618Y-1.9882
X4.2835Y-2.7953
X4.2913Y-3.3622
X4.3012Y-2.3524
X4.3228Y-2.8189
X4.3307Y-1.7913
X4.3307Y-2.3917
X4.3307Y-3.3307
X4.3366Y-3.2129
X4.3406Y-2.3031
X4.3465Y-3.251
X4.3602Y-1.2644
X4.3602Y-1.3091
X4.3701Y-3.3543
X4.3799Y-1.1516
X4.3888Y-1.3976
X4.3937Y-5.9488
X4.3996Y-4.0059
X4.4193Y-1.4469
X4.4311Y-5.2539
X4.4311Y-5.5492
X4.4311Y-5.6969
X4.4478Y-1.4862
X4.4783Y-1.8799
X4.5039Y-2.3858
X4.5039Y-2.4488
X4.5276Y-2.3307
X4.5276Y-2.6614
X4.5748Y-2.7008
X4.5758Y-2.1063
X4.5984Y-5.5512
X4.5984Y-5.9213
X4.6063Y-2.0472
X4.6161Y-1.752
X4.6161Y-4.5472
X4.626Y-4.4508
X4.626Y-4.9724
X4.6368Y-2.1063
X4.6457Y-2.2992
X4.6457Y-4.2441
X4.6457Y-4.7559
X4.6555Y-1.2106
X4.6555Y-1.4469
X4.6752Y-3.6516
X4.6772Y-2.3858
X4.685Y-1.5354
X4.7008Y-1.8583
X4.7008Y-2.874
X4.7047Y-3.4941
X4.7323Y-5.6299
X4.7343Y-1.6437
X4.7402Y-2.9055
X4.7441Y-3.1791
X4.7441Y-3.9961
X4.7638Y-1.7913
X4.7736Y-3.3858
X4.7795Y-1.8583
X4.7835Y-2.9331
X4.7933Y-1.752
X4.7933Y-5.2461
X4.8153Y-5.3333
X4.8917Y-4.4902
X4.8917Y-5.002
X4.8976Y-2.3465
X4.8976Y-2.4094
X4.8996Y-1.1969
X4.9016Y-2.7953
X4.9055Y-2.2913
X4.939Y-1.2461
X4.9528Y-1.8583
X4.9587Y-1.6909
X4.9606Y-2.2677
X4.9705Y-4.5098
X4.9705Y-5.0217
X4.9764Y-1.4803
X5.0315Y-1.8583
X5.0394Y-5.0197
X5.0472Y-2.2598
X5.0551Y-2.1181
X5.0689Y-5.2283
X5.0689Y-5.3268
X5.0689Y-5.4252
X5.0689Y-5.5236
X5.0787Y-1.6772
X5.1181Y-4.1161
X5.1181Y-4.2244
X5.1181Y-4.3228
X5.1181Y-4.4213
X5.1181Y-4.6378
X5.1181Y-4.7362
X5.1181Y-4.8346
X5.1181Y-4.9331
X5.1339Y-1.4488
X5.1339Y-2.2598
X5.1417Y-3.4016
X5.1476Y-3.6614
X5.1673Y-2.4016
X5.1673Y-2.4508
X5.1673Y-2.5197
X5.1673Y-2.5591
X5.1673Y-2.5984
X5.1673Y-2.6476
X5.1673Y-2.7362
X5.1673Y-5.7579
X5.1673Y-5.9843
X5.1969Y-1.0827
X5.1969Y-6.3287
X5.2047Y-3.4016
X5.2283Y-2.1575
X5.2461Y-5.6102
X5.2756Y-5.2283
X5.2756Y-5.3268
X5.2756Y-5.4252
X5.2756Y-5.5236
X5.2854Y-5.8071
X5.2953Y-1.2303
X5.3248Y-1.7323
X5.3248Y-1.8701
X5.3248Y-4.1161
X5.3248Y-4.2244
X5.3248Y-4.3228
X5.3248Y-4.4213
X5.3248Y-4.6378
X5.3248Y-4.7362
X5.3248Y-4.8346
X5.3248Y-4.9331
X5.3445Y-2.7274
X5.3465Y-3.2598
X5.3465Y-3.5669
X5.3937Y-1.6043
X5.3937Y-3.8976
X5.4035Y-2.7165
X5.4094Y-2.0157
X5.4134Y-3.9567
X5.4429Y-1.0925
X5.4528Y-1.5748
X5.5039Y-2.9449
X5.5118Y-3.1339
X5.5118Y-5.1594
X5.5354Y-4.6535
X5.5354Y-4.7953
X5.5413Y-4.1732
X5.5413Y-4.3209
X5.5433Y-4.7008
X5.5433Y-4.8425
X5.561Y-4.124
X5.5628Y-4.2699
X5.5807Y-1.752
X5.5906Y-5.748
X5.5906Y-5.9843
X5.6142Y-2.0335
X5.6142Y-2.1122
X5.6142Y-2.2382
X5.6142Y-2.4331
X5.6142Y-2.5039
X5.6142Y-2.6437
X5.6142Y-2.7146
X5.6201Y-1.7126
X5.6791Y-1.0925
X5.6791Y-2.0866
X5.7185Y-4.4606
X5.7185Y-4.9626
X5.7283Y-4.3602
X5.7283Y-5.1083
X5.7283Y-5.6004
X5.7283Y-5.8071
X5.7382Y-4.4213
X5.7382Y-5.4055
X5.7402Y-4.7008
X5.7402Y-4.7559
X5.7402Y-4.8346
X5.748Y-3.7992
X5.748Y-3.8976
X5.748Y-4.2028
X5.748Y-4.6083
X5.748Y-4.9331
X5.7559Y-4.8819
X5.7579Y-4.0866
X5.7579Y-4.1535
X5.7579Y-4.311
X5.7647Y-3.0217
X5.7874Y-2.9823
X5.7972Y-3.7992
X5.7972Y-3.8976
X5.7972Y-5.748
X5.8071Y-2.9429
X5.8268Y-2.9035
X5.8356Y-4.5797
X5.8366Y-4.0669
X5.8465Y-3.3858
X5.8465Y-3.5335
X5.8661Y-1.1713
X5.8661Y-1.2598
X5.8661Y-1.3189
X5.8661Y-1.378
X5.8661Y-1.4272
X5.9055Y-4.9823
X5.9154Y-3.061
X5.9252Y-3.2382
X5.935Y-4.1457
X5.935Y-4.4803
X5.935Y-4.6476
X5.935Y-5.2067
X5.935Y-5.2854
X5.935Y-5.374
X5.935Y-5.4528
X5.935Y-5.5413
X6.1339Y-6.4961
X6.1732Y-6.3701
T2
X3.1142Y-1.2697
X3.1142Y-1.3681
X3.1142Y-1.4665
X3.1142Y-1.8307
X3.1142Y-1.9291
X3.1142Y-2.0276
X3.2441Y-1.2697
X3.2441Y-1.3681
X3.2441Y-1.4665
X3.2441Y-1.8307
X3.2441Y-1.9291
X3.2441Y-2.0276
T3
X1.7028Y-1.2303
X1.7028Y-1.5256
X1.7028Y-1.7815
X1.7028Y-2.0768
X1.7028Y-2.3327
X1.7028Y-2.628
X1.7028Y-2.9193
X1.7028Y-3.2146
X5.8Y-2.0
X5.8Y-2.1
X5.8Y-2.2
X5.8Y-2.3
X5.8Y-2.4
X5.8Y-2.5
X5.8Y-2.6
X5.8Y-2.7
X5.8Y-2.8
X5.9Y-2.0
X5.9Y-2.1
X5.9Y-2.2
X5.9Y-2.3
X5.9Y-2.4
X5.9Y-2.5
X5.9Y-2.6
X5.9Y-2.7
X5.9Y-2.8
T4
X1.6437Y-3.6614
X1.7421Y-3.4646
X1.8406Y-3.6614
X1.998Y-3.6614
X2.0965Y-3.4646
X2.1949Y-3.6614
X2.3524Y-3.6614
X2.4508Y-3.4646
X2.5492Y-3.6614
T5
X1.6623Y-5.357
X1.6623Y-5.457
X1.6623Y-5.857
X1.6623Y-6.057
X1.9576Y-5.357
X1.9576Y-5.457
X1.9576Y-5.857
X1.9576Y-6.057
X2.2528Y-5.357
X2.2528Y-5.457
X2.2528Y-5.857
X2.2528Y-6.057
X2.5481Y-5.357
X2.5481Y-5.457
X2.5481Y-5.857
X2.5481Y-6.057
X2.8434Y-5.357
X2.8434Y-5.457
X2.8434Y-5.857
X2.8434Y-6.057
X3.1387Y-5.357
X3.1387Y-5.457
X3.1387Y-5.857
X3.1387Y-6.057
T6
X1.6634Y-4.3209
X1.6634Y-4.4209
X1.6634Y-4.5209
X1.6634Y-4.6209
X1.7421Y-3.9469
X2.0965Y-3.9469
X2.2343Y-1.0039
X2.2933Y-1.2303
X2.2933Y-1.5256
X2.2933Y-1.7815
X2.2933Y-2.0768
X2.2933Y-2.3327
X2.2933Y-2.628
X2.2933Y-2.9193
X2.2933Y-3.2146
X2.3689Y-4.3209
X2.3689Y-4.4209
X2.3689Y-4.5209
X2.3689Y-4.6209
X2.4508Y-3.9469
X2.4689Y-4.3209
X2.4689Y-4.4209
X2.4689Y-4.5209
X2.4689Y-4.6209
X2.4902Y-1.2303
X2.4902Y-1.5256
X2.4902Y-1.7815
X2.4902Y-2.0768
X2.4902Y-2.3327
X2.4902Y-2.628
X2.4902Y-2.9193
X2.4902Y-3.2146
X2.6378Y-1.0039
X3.0413Y-1.0039
X3.4449Y-1.0039
T7
X3.8091Y-7.185
T8
X3.7091Y-7.085
X3.7091Y-7.285
X3.9091Y-7.085
X3.9091Y-7.285
T9
X1.8197Y-6.3287
X1.8197Y-6.5039
X1.8197Y-6.6791
X1.8197Y-6.8543
X1.8197Y-7.0295
X1.8197Y-7.2047
X2.1787Y-6.3287
X2.1787Y-6.5039
X2.1787Y-6.6791
X2.1787Y-6.8543
X2.1787Y-7.0295
X2.1787Y-7.2047
X2.8496Y-6.3287
X2.8496Y-6.5039
X2.8496Y-6.6791
X2.8496Y-6.8543
X2.8496Y-7.0295
X2.8496Y-7.2047
X3.2087Y-6.3287
X3.2087Y-6.5039
X3.2087Y-6.6791
X3.2087Y-6.8543
X3.2087Y-7.0295
X3.2087Y-7.2047
X4.3898Y-6.3287
X4.3898Y-6.5039
X4.3898Y-6.6791
X4.3898Y-6.8543
X4.3898Y-7.0295
X4.3898Y-7.2047
X4.7488Y-6.3287
X4.7488Y-6.5039
X4.7488Y-6.6791
X4.7488Y-6.8543
X4.7488Y-7.0295
X4.7488Y-7.2047
X5.4197Y-6.3287
X5.4197Y-6.5039
X5.4197Y-6.6791
X5.4197Y-6.8543
X5.4197Y-7.0295
X5.4197Y-7.2047
X5.7787Y-6.3287
X5.7787Y-6.5039
X5.7787Y-6.6791
X5.7787Y-6.8543
X5.7787Y-7.0295
X5.7787Y-7.2047
T10
X1.4742Y-7.1598
X6.1242Y-7.1598
T0
M30
