%TF.GenerationSoftware,KiCad,Pcbnew,(6.0.0)*%
%TF.CreationDate,2022-07-10T13:58:59+09:30*%
%TF.ProjectId,ECU,4543552e-6b69-4636-9164-5f7063625858,rev?*%
%TF.SameCoordinates,Original*%
%TF.FileFunction,Soldermask,Bot*%
%TF.FilePolarity,Negative*%
%FSLAX46Y46*%
G04 Gerber Fmt 4.6, Leading zero omitted, Abs format (unit mm)*
G04 Created by KiCad (PCBNEW (6.0.0)) date 2022-07-10 13:58:59*
%MOMM*%
%LPD*%
G01*
G04 APERTURE LIST*
G04 Aperture macros list*
%AMRoundRect*
0 Rectangle with rounded corners*
0 $1 Rounding radius*
0 $2 $3 $4 $5 $6 $7 $8 $9 X,Y pos of 4 corners*
0 Add a 4 corners polygon primitive as box body*
4,1,4,$2,$3,$4,$5,$6,$7,$8,$9,$2,$3,0*
0 Add four circle primitives for the rounded corners*
1,1,$1+$1,$2,$3*
1,1,$1+$1,$4,$5*
1,1,$1+$1,$6,$7*
1,1,$1+$1,$8,$9*
0 Add four rect primitives between the rounded corners*
20,1,$1+$1,$2,$3,$4,$5,0*
20,1,$1+$1,$4,$5,$6,$7,0*
20,1,$1+$1,$6,$7,$8,$9,0*
20,1,$1+$1,$8,$9,$2,$3,0*%
G04 Aperture macros list end*
%ADD10C,1.900000*%
%ADD11C,1.600000*%
%ADD12C,1.500000*%
%ADD13C,2.600000*%
%ADD14C,1.750000*%
%ADD15C,2.839000*%
%ADD16C,5.350000*%
%ADD17C,2.500000*%
%ADD18C,2.770000*%
%ADD19C,1.800000*%
%ADD20RoundRect,0.050000X-0.850000X-0.850000X0.850000X-0.850000X0.850000X0.850000X-0.850000X0.850000X0*%
%ADD21O,1.800000X1.800000*%
%ADD22RoundRect,0.050000X0.900000X-0.900000X0.900000X0.900000X-0.900000X0.900000X-0.900000X-0.900000X0*%
%ADD23RoundRect,0.050000X-1.905000X-2.120000X1.905000X-2.120000X1.905000X2.120000X-1.905000X2.120000X0*%
%ADD24RoundRect,0.300000X0.450000X-0.262500X0.450000X0.262500X-0.450000X0.262500X-0.450000X-0.262500X0*%
%ADD25RoundRect,0.200000X0.875000X0.150000X-0.875000X0.150000X-0.875000X-0.150000X0.875000X-0.150000X0*%
%ADD26RoundRect,0.050000X-0.900000X1.250000X-0.900000X-1.250000X0.900000X-1.250000X0.900000X1.250000X0*%
%ADD27RoundRect,0.050000X-0.635000X-0.700000X0.635000X-0.700000X0.635000X0.700000X-0.635000X0.700000X0*%
%ADD28RoundRect,0.050000X-2.360000X-2.400000X2.360000X-2.400000X2.360000X2.400000X-2.360000X2.400000X0*%
%ADD29C,0.900000*%
G04 APERTURE END LIST*
D10*
%TO.C,K1*%
X63250000Y-38750000D03*
X63250000Y-31250000D03*
X58250000Y-38750000D03*
X58250000Y-31250000D03*
D11*
X43250000Y-38750000D03*
X43250000Y-31250000D03*
%TD*%
D10*
%TO.C,K2*%
X63250000Y-52750000D03*
X63250000Y-45250000D03*
X58250000Y-52750000D03*
X58250000Y-45250000D03*
D11*
X43250000Y-52750000D03*
X43250000Y-45250000D03*
%TD*%
D10*
%TO.C,K3*%
X63250000Y-66750000D03*
X63250000Y-59250000D03*
X58250000Y-66750000D03*
X58250000Y-59250000D03*
D11*
X43250000Y-66750000D03*
X43250000Y-59250000D03*
%TD*%
D10*
%TO.C,K5*%
X63250000Y-81650000D03*
X63250000Y-74150000D03*
X58250000Y-81650000D03*
X58250000Y-74150000D03*
D11*
X43250000Y-81650000D03*
X43250000Y-74150000D03*
%TD*%
D12*
%TO.C,S1*%
X82400000Y-37250000D03*
X82400000Y-34750000D03*
X82400000Y-32250000D03*
X79100000Y-37250000D03*
X79100000Y-34750000D03*
X79100000Y-32250000D03*
%TD*%
D13*
%TO.C,TP2*%
X44250000Y-100250000D03*
%TD*%
%TO.C,TP3*%
X53250000Y-100250000D03*
%TD*%
%TO.C,TP4*%
X62250000Y-100250000D03*
%TD*%
D12*
%TO.C,S2*%
X82400000Y-51500000D03*
X82400000Y-49000000D03*
X82400000Y-46500000D03*
X79100000Y-51500000D03*
X79100000Y-49000000D03*
X79100000Y-46500000D03*
%TD*%
D14*
%TO.C,RV1*%
X41750000Y-93000000D03*
X44250000Y-88000000D03*
X46750000Y-93000000D03*
%TD*%
%TO.C,RV2*%
X50750000Y-93000000D03*
X53250000Y-88000000D03*
X55750000Y-93000000D03*
%TD*%
%TO.C,RV3*%
X59750000Y-93000000D03*
X62250000Y-88000000D03*
X64750000Y-93000000D03*
%TD*%
D13*
%TO.C,TP8*%
X67000000Y-25500000D03*
%TD*%
%TO.C,TP9*%
X77250000Y-25500000D03*
%TD*%
%TO.C,TP7*%
X56750000Y-25500000D03*
%TD*%
D15*
%TO.C,J1*%
X55340000Y-160750000D03*
X55340000Y-165200000D03*
X55340000Y-169650000D03*
X55340000Y-174100000D03*
X55340000Y-178550000D03*
X55340000Y-183000000D03*
X46220000Y-183000000D03*
X46220000Y-178550000D03*
X46220000Y-174100000D03*
X46220000Y-169650000D03*
X46220000Y-165200000D03*
X46220000Y-160750000D03*
X146780000Y-160750000D03*
X146780000Y-165200000D03*
X146780000Y-169650000D03*
X146780000Y-174100000D03*
X146780000Y-178550000D03*
X146780000Y-183000000D03*
X137660000Y-183000000D03*
X137660000Y-178550000D03*
X137660000Y-174100000D03*
X137660000Y-169650000D03*
X137660000Y-165200000D03*
X137660000Y-160750000D03*
X81500000Y-160750000D03*
X81500000Y-165200000D03*
X81500000Y-169650000D03*
X81500000Y-174100000D03*
X81500000Y-178550000D03*
X81500000Y-183000000D03*
X72380000Y-183000000D03*
X72380000Y-178550000D03*
X72380000Y-174100000D03*
X72380000Y-169650000D03*
X72380000Y-165200000D03*
X72380000Y-160750000D03*
X120620000Y-160750000D03*
X120620000Y-165200000D03*
X120620000Y-169650000D03*
X120620000Y-174100000D03*
X120620000Y-178550000D03*
X120620000Y-183000000D03*
X111500000Y-183000000D03*
X111500000Y-178550000D03*
X111500000Y-174100000D03*
X111500000Y-169650000D03*
X111500000Y-165200000D03*
X111500000Y-160750000D03*
D16*
X37445000Y-181860000D03*
X155555000Y-181860000D03*
%TD*%
D17*
%TO.C,J5*%
X96750000Y-182500000D03*
D18*
X94210000Y-185040000D03*
X99290000Y-185040000D03*
X99290000Y-179960000D03*
X94210000Y-179960000D03*
%TD*%
D19*
%TO.C,K16*%
X79722000Y-136069000D03*
X79722000Y-138609000D03*
X79722000Y-148769000D03*
X79722000Y-153849000D03*
%TD*%
%TO.C,K11*%
X42222000Y-136069000D03*
X42222000Y-138609000D03*
X42222000Y-148769000D03*
X42222000Y-153849000D03*
%TD*%
%TO.C,K12*%
X49722000Y-136069000D03*
X49722000Y-138609000D03*
X49722000Y-148769000D03*
X49722000Y-153849000D03*
%TD*%
%TO.C,K13*%
X57222000Y-136069000D03*
X57222000Y-138609000D03*
X57222000Y-148769000D03*
X57222000Y-153849000D03*
%TD*%
%TO.C,K14*%
X64722000Y-136069000D03*
X64722000Y-138609000D03*
X64722000Y-148769000D03*
X64722000Y-153849000D03*
%TD*%
%TO.C,K15*%
X72222000Y-136069000D03*
X72222000Y-138609000D03*
X72222000Y-148769000D03*
X72222000Y-153849000D03*
%TD*%
D13*
%TO.C,H3*%
X151000000Y-43000000D03*
%TD*%
%TO.C,H2*%
X107000000Y-125000000D03*
%TD*%
%TO.C,H1*%
X95000000Y-43000000D03*
%TD*%
%TO.C,TP1*%
X87500000Y-25500000D03*
%TD*%
D20*
%TO.C,J2*%
X147320000Y-50800000D03*
D21*
X149860000Y-50800000D03*
X147320000Y-53340000D03*
X149860000Y-53340000D03*
X147320000Y-55880000D03*
X149860000Y-55880000D03*
X147320000Y-58420000D03*
X149860000Y-58420000D03*
X147320000Y-60960000D03*
X149860000Y-60960000D03*
X147320000Y-63500000D03*
X149860000Y-63500000D03*
X147320000Y-66040000D03*
X149860000Y-66040000D03*
X147320000Y-68580000D03*
X149860000Y-68580000D03*
X147320000Y-71120000D03*
X149860000Y-71120000D03*
%TD*%
D22*
%TO.C,PS1*%
X42250000Y-109750000D03*
D10*
X42250000Y-112290000D03*
X42250000Y-114830000D03*
X42250000Y-117370000D03*
X60170000Y-109750000D03*
X60170000Y-112290000D03*
X60170000Y-114830000D03*
X60170000Y-117370000D03*
X62710000Y-117370000D03*
X62710000Y-114830000D03*
X62710000Y-112290000D03*
X62710000Y-109750000D03*
%TD*%
D23*
%TO.C,F1*%
X46000000Y-147685000D03*
X46000000Y-141315000D03*
%TD*%
%TO.C,F2*%
X53500000Y-147685000D03*
X53500000Y-141315000D03*
%TD*%
%TO.C,F3*%
X61000000Y-147685000D03*
X61000000Y-141315000D03*
%TD*%
%TO.C,F5*%
X68500000Y-147685000D03*
X68500000Y-141315000D03*
%TD*%
%TO.C,F6*%
X76000000Y-147685000D03*
X76000000Y-141315000D03*
%TD*%
%TO.C,F7*%
X83500000Y-147685000D03*
X83500000Y-141315000D03*
%TD*%
D24*
%TO.C,R11*%
X46000000Y-137912500D03*
X46000000Y-136087500D03*
%TD*%
%TO.C,R12*%
X53500000Y-137912500D03*
X53500000Y-136087500D03*
%TD*%
%TO.C,R13*%
X61000000Y-137912500D03*
X61000000Y-136087500D03*
%TD*%
%TO.C,R14*%
X68500000Y-137912500D03*
X68500000Y-136087500D03*
%TD*%
%TO.C,R15*%
X76000000Y-137912500D03*
X76000000Y-136087500D03*
%TD*%
%TO.C,R16*%
X83500000Y-137825000D03*
X83500000Y-136000000D03*
%TD*%
D25*
%TO.C,U2*%
X146150000Y-29555000D03*
X146150000Y-30825000D03*
X146150000Y-32095000D03*
X146150000Y-33365000D03*
X146150000Y-34635000D03*
X146150000Y-35905000D03*
X146150000Y-37175000D03*
X146150000Y-38445000D03*
X136850000Y-38445000D03*
X136850000Y-37175000D03*
X136850000Y-35905000D03*
X136850000Y-34635000D03*
X136850000Y-33365000D03*
X136850000Y-32095000D03*
X136850000Y-30825000D03*
X136850000Y-29555000D03*
%TD*%
D26*
%TO.C,D3*%
X46500000Y-61000000D03*
X46500000Y-65000000D03*
%TD*%
%TO.C,D2*%
X46500000Y-47000000D03*
X46500000Y-51000000D03*
%TD*%
%TO.C,D4*%
X46500000Y-76000000D03*
X46500000Y-80000000D03*
%TD*%
%TO.C,D1*%
X46500000Y-33000000D03*
X46500000Y-37000000D03*
%TD*%
D27*
%TO.C,D19*%
X42350000Y-129715000D03*
X42350000Y-131795000D03*
D28*
X46155000Y-130755000D03*
%TD*%
D29*
X135250000Y-109800000D03*
X135250000Y-107300000D03*
X135250000Y-112300000D03*
X126250000Y-114550000D03*
X145250000Y-113300000D03*
X145250000Y-126050000D03*
X126250000Y-127550000D03*
X118000000Y-120800000D03*
X130000000Y-112300000D03*
X135250000Y-104550000D03*
X130000000Y-107300000D03*
X118000000Y-107800000D03*
X130000000Y-104550000D03*
X130000000Y-109800000D03*
X135250000Y-120300000D03*
X135250000Y-122800000D03*
X130000000Y-122800000D03*
X130000000Y-120300000D03*
X130000000Y-117800000D03*
X135250000Y-117800000D03*
X135250000Y-125300000D03*
X130000000Y-125300000D03*
X99550000Y-66380000D03*
X94350000Y-48380000D03*
X92800000Y-54880000D03*
X140000000Y-131050000D03*
X145750000Y-137300000D03*
X128750000Y-132800000D03*
X128750000Y-137800000D03*
X128750000Y-135300000D03*
X128750000Y-140300000D03*
X134000000Y-137800000D03*
X134000000Y-132800000D03*
X134000000Y-140300000D03*
X134000000Y-135300000D03*
X107750000Y-40000000D03*
X118250000Y-30750000D03*
X110750000Y-32115000D03*
X125450000Y-31650000D03*
X126400000Y-37600000D03*
X125950000Y-42950000D03*
X142600000Y-53650000D03*
X148500000Y-86000000D03*
X140000000Y-79600000D03*
X142000000Y-146000000D03*
X87250000Y-58000000D03*
X118250000Y-36750000D03*
X78000000Y-28750000D03*
X92300000Y-153300000D03*
X85500000Y-69750000D03*
X130750000Y-93000000D03*
X121400000Y-47200000D03*
X90600000Y-172200000D03*
X80750000Y-64500000D03*
X108250000Y-48500000D03*
X94700000Y-76400000D03*
X75056019Y-91797658D03*
X148500000Y-89750000D03*
X131250000Y-146250000D03*
X119500000Y-88750000D03*
X83000022Y-79000000D03*
X98500000Y-53870000D03*
X81250000Y-69500000D03*
X106400000Y-173800000D03*
X60781740Y-95473739D03*
X106500000Y-163200000D03*
X60250000Y-127750000D03*
X78249998Y-43000000D03*
X76250000Y-29750000D03*
X88650005Y-63650005D03*
X112550000Y-133450000D03*
X71273952Y-82273952D03*
X112550000Y-144700000D03*
X95750000Y-141000000D03*
X127800000Y-47200000D03*
X142600000Y-56850000D03*
X137400000Y-51200000D03*
X63500000Y-127750000D03*
X67750000Y-39750000D03*
X120250000Y-41750000D03*
X150250000Y-77750000D03*
X58750000Y-127750000D03*
X90800000Y-164700000D03*
X134500000Y-31250000D03*
X131250000Y-152000000D03*
X132200000Y-86400000D03*
X87750000Y-91795000D03*
X142600000Y-63600000D03*
X111250000Y-29250000D03*
X78000000Y-129000000D03*
X62000000Y-127750000D03*
X79500000Y-129000000D03*
X147250000Y-146000000D03*
X118750000Y-92750000D03*
X87148951Y-84398957D03*
X137000000Y-99000000D03*
X105000000Y-53800000D03*
X95750000Y-143750000D03*
X103000000Y-75000000D03*
X40100000Y-126500000D03*
X87750000Y-100500000D03*
X76250000Y-58000000D03*
X92600000Y-71400000D03*
X87250000Y-73750000D03*
X130400000Y-36800000D03*
X142600000Y-68950000D03*
X81337500Y-91795000D03*
X44300000Y-126500000D03*
X121500000Y-74500000D03*
X76250000Y-44000000D03*
X67750000Y-68000000D03*
X67750000Y-54000000D03*
X121250000Y-86000000D03*
X113750000Y-47750000D03*
X102500000Y-67500000D03*
X120200000Y-143000000D03*
X135800000Y-82800000D03*
X77500002Y-75250000D03*
X142000000Y-152000000D03*
X121750000Y-133250000D03*
X103250000Y-61750000D03*
X66500000Y-89750000D03*
X66500000Y-102500000D03*
X87250000Y-75750000D03*
X71999996Y-129250000D03*
X82750000Y-77000000D03*
X45250000Y-92000000D03*
X82750000Y-81750000D03*
X54250000Y-92000000D03*
X91000000Y-74200000D03*
X105250000Y-59250000D03*
X68750000Y-96500000D03*
X70500000Y-129250000D03*
X67500000Y-97500000D03*
X68999962Y-129250000D03*
X84312500Y-58062500D03*
X85500000Y-64750000D03*
X80051060Y-78531847D03*
X79000000Y-83000000D03*
X65500000Y-80250000D03*
X79499984Y-64000000D03*
X146000000Y-117050000D03*
X150750000Y-118050000D03*
X150000000Y-126550000D03*
X132000000Y-160750000D03*
X146000000Y-125300000D03*
X149000000Y-32000000D03*
X149000000Y-29750000D03*
X122308326Y-135466674D03*
X88500000Y-82250000D03*
X149000000Y-35000000D03*
X149000000Y-33500000D03*
X149000000Y-36250000D03*
X144250000Y-27750000D03*
X150750000Y-113800000D03*
X145750000Y-112300000D03*
X146250000Y-103800000D03*
X150750000Y-105300000D03*
X141750000Y-44500000D03*
X156800000Y-161800000D03*
X142750000Y-43500000D03*
X155800000Y-165000000D03*
X100200000Y-156800000D03*
X102200000Y-156800000D03*
X106800000Y-156800000D03*
X104600000Y-156800000D03*
X97800000Y-156800000D03*
X95600000Y-156800000D03*
X100050000Y-64130000D03*
X110000000Y-45500000D03*
X124450000Y-30400000D03*
X107750000Y-34500000D03*
X132000000Y-27500000D03*
X119000000Y-39000000D03*
X120500000Y-101500000D03*
X142600000Y-51650000D03*
X100750000Y-90250000D03*
X125800000Y-47200000D03*
X103250000Y-63250000D03*
X130600000Y-86400000D03*
X116800000Y-150399990D03*
X117250000Y-115500000D03*
X119400000Y-47200000D03*
X99000000Y-115250000D03*
X108250000Y-50500000D03*
X99000000Y-105000000D03*
X103250000Y-141000000D03*
X142600000Y-67150000D03*
X102500000Y-68750000D03*
X120500000Y-80750000D03*
X94820000Y-68460000D03*
X142600000Y-61800000D03*
X138250000Y-27750000D03*
X139800000Y-74800000D03*
X150500000Y-82250000D03*
X103000000Y-76250000D03*
X100750000Y-95250000D03*
X92200000Y-158500000D03*
X129000000Y-42600000D03*
X135800000Y-90600000D03*
X128000000Y-127500000D03*
X116800000Y-141000000D03*
X99000000Y-110000000D03*
X99000000Y-100000000D03*
X145500000Y-129750000D03*
X150750000Y-140750000D03*
X137250000Y-69000000D03*
X121750000Y-44500000D03*
X120400000Y-73800000D03*
X121000000Y-45500000D03*
X119400000Y-73000000D03*
X98100000Y-125900000D03*
X111750000Y-101750000D03*
X110000000Y-60750000D03*
X106200000Y-87600000D03*
X106200000Y-86000000D03*
X109250000Y-59750000D03*
X109800000Y-71600000D03*
X109000000Y-85400000D03*
X108800000Y-71000000D03*
X108200000Y-86000000D03*
X111000000Y-85200000D03*
X118800000Y-60600000D03*
X118000000Y-58400000D03*
X110000000Y-84600000D03*
X99699980Y-77500000D03*
X103200000Y-77600000D03*
X148250000Y-103300000D03*
X87700000Y-38800000D03*
X81250000Y-58000000D03*
X112550000Y-140950000D03*
X88500006Y-77000000D03*
X80450011Y-71476048D03*
X82779574Y-72512855D03*
X88750000Y-61250000D03*
X111600000Y-151100000D03*
X103250000Y-143750000D03*
X82812500Y-83437500D03*
X148225000Y-116325000D03*
X80450011Y-74169654D03*
X84500000Y-66000004D03*
X135250000Y-44000000D03*
X135250000Y-47500000D03*
X124500000Y-71000000D03*
X137500000Y-100500000D03*
X117500000Y-126300000D03*
X124250000Y-127050000D03*
X124250000Y-114050000D03*
X117500000Y-113050000D03*
X133250000Y-142500000D03*
X147000000Y-75750000D03*
X147500000Y-74750000D03*
X134250000Y-147500000D03*
X148000000Y-73750000D03*
X145500000Y-147500000D03*
X150750000Y-138500000D03*
X147250000Y-96500000D03*
X150750000Y-136500000D03*
X146000000Y-96500000D03*
X150750000Y-134250000D03*
X147250000Y-99000000D03*
X146000000Y-99000000D03*
X150750000Y-132250000D03*
X145500000Y-142250000D03*
X146424500Y-76750000D03*
X110400000Y-82574990D03*
X115000000Y-67600000D03*
X110150119Y-81606711D03*
X116200000Y-68600000D03*
X91200455Y-122250000D03*
X91250000Y-124000000D03*
X91250000Y-125750000D03*
X91250000Y-127500000D03*
X91250000Y-129250000D03*
X91250000Y-131000000D03*
X50000000Y-175000000D03*
X50000000Y-170000000D03*
X40000000Y-165000000D03*
X72250000Y-144250000D03*
X72250000Y-146250000D03*
X72250000Y-140250000D03*
X72250000Y-142250000D03*
X50200000Y-129900000D03*
X64750000Y-144250000D03*
X79750000Y-144250000D03*
X51700000Y-128400000D03*
X67500000Y-175000000D03*
X53200000Y-132900000D03*
X42250000Y-146250000D03*
X53200000Y-128400000D03*
X42250000Y-144250000D03*
X49750000Y-146250000D03*
X50200000Y-131400000D03*
X57250000Y-146250000D03*
X67500000Y-185000000D03*
X51700000Y-131400000D03*
X79750000Y-146250000D03*
X57250000Y-144250000D03*
X39750000Y-123500000D03*
X67500000Y-165000000D03*
X67500000Y-170000000D03*
X49750000Y-144250000D03*
X68273952Y-73773952D03*
X52500000Y-118000000D03*
X62500000Y-185000000D03*
X79750000Y-142250000D03*
X53200000Y-129900000D03*
X67500000Y-180000000D03*
X42250000Y-140250000D03*
X50200000Y-128400000D03*
X44200000Y-135100000D03*
X64750000Y-142250000D03*
X67500000Y-160000000D03*
X35000000Y-175000000D03*
X49750000Y-142250000D03*
X64750000Y-146250000D03*
X57250000Y-140250000D03*
X50000000Y-165000000D03*
X40000000Y-185000000D03*
X51700000Y-129900000D03*
X50000000Y-180000000D03*
X57250000Y-142250000D03*
X53200000Y-131400000D03*
X64750000Y-140250000D03*
X50000000Y-185000000D03*
X49750000Y-140250000D03*
X79750000Y-140250000D03*
X50200000Y-132900000D03*
X40000000Y-160900000D03*
X51700000Y-132900000D03*
X42250000Y-142250000D03*
X39750000Y-118000000D03*
X110250000Y-58500000D03*
X110750000Y-33250000D03*
X111474500Y-35500000D03*
X114400000Y-62200000D03*
X112250000Y-36750000D03*
X114400000Y-60600000D03*
X115000000Y-59200000D03*
X112974500Y-37750000D03*
X145800000Y-119400000D03*
X131250000Y-65000000D03*
X131250000Y-66000000D03*
X145800000Y-120800000D03*
X145800000Y-122800000D03*
X131250000Y-67250000D03*
X131250000Y-69500000D03*
X146200000Y-124000000D03*
X124400000Y-61200000D03*
X140800000Y-123000000D03*
X124400000Y-59600000D03*
X140600000Y-121800000D03*
X140800000Y-119400000D03*
X124600000Y-58200000D03*
X126000000Y-57600000D03*
X140600000Y-118200000D03*
X135750000Y-69275000D03*
X146250000Y-105500000D03*
X131250000Y-61000000D03*
X146000000Y-106750000D03*
X131250000Y-62250000D03*
X146250000Y-109500000D03*
X131250000Y-64000000D03*
X145500000Y-110750000D03*
X140750000Y-109750000D03*
X128200000Y-57400000D03*
X141295495Y-108454505D03*
X128400000Y-53800000D03*
X140750000Y-106000000D03*
X130400000Y-57400000D03*
X141250000Y-104750000D03*
X132800000Y-54800000D03*
X89006824Y-87037015D03*
X103000000Y-64750000D03*
X89500000Y-88000000D03*
X103000000Y-65750000D03*
X144250000Y-53000000D03*
X137000000Y-40750000D03*
X138500000Y-40000000D03*
X117775500Y-53500000D03*
X117000000Y-52000000D03*
X116224500Y-53500000D03*
X117250000Y-44500000D03*
X90525500Y-88000000D03*
X103000000Y-70000000D03*
X103000000Y-71675472D03*
X91059884Y-88844653D03*
M02*
