%TF.GenerationSoftware,KiCad,Pcbnew,(6.0.0)*%
%TF.CreationDate,2022-07-10T13:58:59+09:30*%
%TF.ProjectId,ECU,4543552e-6b69-4636-9164-5f7063625858,rev?*%
%TF.SameCoordinates,Original*%
%TF.FileFunction,Other,Comment*%
%FSLAX46Y46*%
G04 Gerber Fmt 4.6, Leading zero omitted, Abs format (unit mm)*
G04 Created by KiCad (PCBNEW (6.0.0)) date 2022-07-10 13:58:59*
%MOMM*%
%LPD*%
G01*
G04 APERTURE LIST*
%ADD10C,0.040000*%
%ADD11C,0.150000*%
G04 APERTURE END LIST*
D10*
%TO.C,U8*%
X132290476Y-40978571D02*
X132090476Y-40978571D01*
X132090476Y-40930952D01*
X132100000Y-40902380D01*
X132119047Y-40883333D01*
X132138095Y-40873809D01*
X132176190Y-40864285D01*
X132204761Y-40864285D01*
X132242857Y-40873809D01*
X132261904Y-40883333D01*
X132280952Y-40902380D01*
X132290476Y-40930952D01*
X132290476Y-40978571D01*
X132290476Y-40778571D02*
X132157142Y-40778571D01*
X132090476Y-40778571D02*
X132100000Y-40788095D01*
X132109523Y-40778571D01*
X132100000Y-40769047D01*
X132090476Y-40778571D01*
X132109523Y-40778571D01*
X132290476Y-40683333D02*
X132157142Y-40683333D01*
X132195238Y-40683333D02*
X132176190Y-40673809D01*
X132166666Y-40664285D01*
X132157142Y-40645238D01*
X132157142Y-40626190D01*
X132280952Y-40483333D02*
X132290476Y-40502380D01*
X132290476Y-40540476D01*
X132280952Y-40559523D01*
X132261904Y-40569047D01*
X132185714Y-40569047D01*
X132166666Y-40559523D01*
X132157142Y-40540476D01*
X132157142Y-40502380D01*
X132166666Y-40483333D01*
X132185714Y-40473809D01*
X132204761Y-40473809D01*
X132223809Y-40569047D01*
X132280952Y-40302380D02*
X132290476Y-40321428D01*
X132290476Y-40359523D01*
X132280952Y-40378571D01*
X132271428Y-40388095D01*
X132252380Y-40397619D01*
X132195238Y-40397619D01*
X132176190Y-40388095D01*
X132166666Y-40378571D01*
X132157142Y-40359523D01*
X132157142Y-40321428D01*
X132166666Y-40302380D01*
X132157142Y-40245238D02*
X132157142Y-40169047D01*
X132090476Y-40216666D02*
X132261904Y-40216666D01*
X132280952Y-40207142D01*
X132290476Y-40188095D01*
X132290476Y-40169047D01*
X132290476Y-40073809D02*
X132280952Y-40092857D01*
X132261904Y-40102380D01*
X132090476Y-40102380D01*
X132157142Y-40016666D02*
X132290476Y-39969047D01*
X132157142Y-39921428D02*
X132290476Y-39969047D01*
X132338095Y-39988095D01*
X132347619Y-39997619D01*
X132357142Y-40016666D01*
X132185714Y-39626190D02*
X132195238Y-39597619D01*
X132204761Y-39588095D01*
X132223809Y-39578571D01*
X132252380Y-39578571D01*
X132271428Y-39588095D01*
X132280952Y-39597619D01*
X132290476Y-39616666D01*
X132290476Y-39692857D01*
X132090476Y-39692857D01*
X132090476Y-39626190D01*
X132100000Y-39607142D01*
X132109523Y-39597619D01*
X132128571Y-39588095D01*
X132147619Y-39588095D01*
X132166666Y-39597619D01*
X132176190Y-39607142D01*
X132185714Y-39626190D01*
X132185714Y-39692857D01*
X132280952Y-39416666D02*
X132290476Y-39435714D01*
X132290476Y-39473809D01*
X132280952Y-39492857D01*
X132261904Y-39502380D01*
X132185714Y-39502380D01*
X132166666Y-39492857D01*
X132157142Y-39473809D01*
X132157142Y-39435714D01*
X132166666Y-39416666D01*
X132185714Y-39407142D01*
X132204761Y-39407142D01*
X132223809Y-39502380D01*
X132290476Y-39292857D02*
X132280952Y-39311904D01*
X132261904Y-39321428D01*
X132090476Y-39321428D01*
X132290476Y-39188095D02*
X132280952Y-39207142D01*
X132271428Y-39216666D01*
X132252380Y-39226190D01*
X132195238Y-39226190D01*
X132176190Y-39216666D01*
X132166666Y-39207142D01*
X132157142Y-39188095D01*
X132157142Y-39159523D01*
X132166666Y-39140476D01*
X132176190Y-39130952D01*
X132195238Y-39121428D01*
X132252380Y-39121428D01*
X132271428Y-39130952D01*
X132280952Y-39140476D01*
X132290476Y-39159523D01*
X132290476Y-39188095D01*
X132157142Y-39054761D02*
X132290476Y-39016666D01*
X132195238Y-38978571D01*
X132290476Y-38940476D01*
X132157142Y-38902380D01*
X131971428Y-40616666D02*
X131980952Y-40626190D01*
X131990476Y-40654761D01*
X131990476Y-40673809D01*
X131980952Y-40702380D01*
X131961904Y-40721428D01*
X131942857Y-40730952D01*
X131904761Y-40740476D01*
X131876190Y-40740476D01*
X131838095Y-40730952D01*
X131819047Y-40721428D01*
X131800000Y-40702380D01*
X131790476Y-40673809D01*
X131790476Y-40654761D01*
X131800000Y-40626190D01*
X131809523Y-40616666D01*
X131990476Y-40502380D02*
X131980952Y-40521428D01*
X131971428Y-40530952D01*
X131952380Y-40540476D01*
X131895238Y-40540476D01*
X131876190Y-40530952D01*
X131866666Y-40521428D01*
X131857142Y-40502380D01*
X131857142Y-40473809D01*
X131866666Y-40454761D01*
X131876190Y-40445238D01*
X131895238Y-40435714D01*
X131952380Y-40435714D01*
X131971428Y-40445238D01*
X131980952Y-40454761D01*
X131990476Y-40473809D01*
X131990476Y-40502380D01*
X131990476Y-40350000D02*
X131857142Y-40350000D01*
X131876190Y-40350000D02*
X131866666Y-40340476D01*
X131857142Y-40321428D01*
X131857142Y-40292857D01*
X131866666Y-40273809D01*
X131885714Y-40264285D01*
X131990476Y-40264285D01*
X131885714Y-40264285D02*
X131866666Y-40254761D01*
X131857142Y-40235714D01*
X131857142Y-40207142D01*
X131866666Y-40188095D01*
X131885714Y-40178571D01*
X131990476Y-40178571D01*
X131857142Y-40083333D02*
X132057142Y-40083333D01*
X131866666Y-40083333D02*
X131857142Y-40064285D01*
X131857142Y-40026190D01*
X131866666Y-40007142D01*
X131876190Y-39997619D01*
X131895238Y-39988095D01*
X131952380Y-39988095D01*
X131971428Y-39997619D01*
X131980952Y-40007142D01*
X131990476Y-40026190D01*
X131990476Y-40064285D01*
X131980952Y-40083333D01*
X131990476Y-39873809D02*
X131980952Y-39892857D01*
X131971428Y-39902380D01*
X131952380Y-39911904D01*
X131895238Y-39911904D01*
X131876190Y-39902380D01*
X131866666Y-39892857D01*
X131857142Y-39873809D01*
X131857142Y-39845238D01*
X131866666Y-39826190D01*
X131876190Y-39816666D01*
X131895238Y-39807142D01*
X131952380Y-39807142D01*
X131971428Y-39816666D01*
X131980952Y-39826190D01*
X131990476Y-39845238D01*
X131990476Y-39873809D01*
X131857142Y-39721428D02*
X131990476Y-39721428D01*
X131876190Y-39721428D02*
X131866666Y-39711904D01*
X131857142Y-39692857D01*
X131857142Y-39664285D01*
X131866666Y-39645238D01*
X131885714Y-39635714D01*
X131990476Y-39635714D01*
X131980952Y-39464285D02*
X131990476Y-39483333D01*
X131990476Y-39521428D01*
X131980952Y-39540476D01*
X131961904Y-39550000D01*
X131885714Y-39550000D01*
X131866666Y-39540476D01*
X131857142Y-39521428D01*
X131857142Y-39483333D01*
X131866666Y-39464285D01*
X131885714Y-39454761D01*
X131904761Y-39454761D01*
X131923809Y-39550000D01*
X131857142Y-39369047D02*
X131990476Y-39369047D01*
X131876190Y-39369047D02*
X131866666Y-39359523D01*
X131857142Y-39340476D01*
X131857142Y-39311904D01*
X131866666Y-39292857D01*
X131885714Y-39283333D01*
X131990476Y-39283333D01*
X131857142Y-39216666D02*
X131857142Y-39140476D01*
X131790476Y-39188095D02*
X131961904Y-39188095D01*
X131980952Y-39178571D01*
X131990476Y-39159523D01*
X131990476Y-39140476D01*
X133040476Y-40569047D02*
X132840476Y-40569047D01*
X133040476Y-40454761D02*
X132926190Y-40540476D01*
X132840476Y-40454761D02*
X132954761Y-40569047D01*
X132935714Y-40369047D02*
X132935714Y-40302380D01*
X133040476Y-40273809D02*
X133040476Y-40369047D01*
X132840476Y-40369047D01*
X132840476Y-40273809D01*
X132935714Y-40188095D02*
X132935714Y-40121428D01*
X133040476Y-40092857D02*
X133040476Y-40188095D01*
X132840476Y-40188095D01*
X132840476Y-40092857D01*
X133040476Y-40007142D02*
X132840476Y-40007142D01*
X132840476Y-39930952D01*
X132850000Y-39911904D01*
X132859523Y-39902380D01*
X132878571Y-39892857D01*
X132907142Y-39892857D01*
X132926190Y-39902380D01*
X132935714Y-39911904D01*
X132945238Y-39930952D01*
X132945238Y-40007142D01*
X132840476Y-39769047D02*
X132840476Y-39730952D01*
X132850000Y-39711904D01*
X132869047Y-39692857D01*
X132907142Y-39683333D01*
X132973809Y-39683333D01*
X133011904Y-39692857D01*
X133030952Y-39711904D01*
X133040476Y-39730952D01*
X133040476Y-39769047D01*
X133030952Y-39788095D01*
X133011904Y-39807142D01*
X132973809Y-39816666D01*
X132907142Y-39816666D01*
X132869047Y-39807142D01*
X132850000Y-39788095D01*
X132840476Y-39769047D01*
X132840476Y-39597619D02*
X133002380Y-39597619D01*
X133021428Y-39588095D01*
X133030952Y-39578571D01*
X133040476Y-39559523D01*
X133040476Y-39521428D01*
X133030952Y-39502380D01*
X133021428Y-39492857D01*
X133002380Y-39483333D01*
X132840476Y-39483333D01*
X132840476Y-39416666D02*
X132840476Y-39302380D01*
X133040476Y-39359523D02*
X132840476Y-39359523D01*
X132640476Y-40692857D02*
X132440476Y-40692857D01*
X132640476Y-40578571D01*
X132440476Y-40578571D01*
X132640476Y-40454761D02*
X132630952Y-40473809D01*
X132621428Y-40483333D01*
X132602380Y-40492857D01*
X132545238Y-40492857D01*
X132526190Y-40483333D01*
X132516666Y-40473809D01*
X132507142Y-40454761D01*
X132507142Y-40426190D01*
X132516666Y-40407142D01*
X132526190Y-40397619D01*
X132545238Y-40388095D01*
X132602380Y-40388095D01*
X132621428Y-40397619D01*
X132630952Y-40407142D01*
X132640476Y-40426190D01*
X132640476Y-40454761D01*
X132621428Y-40035714D02*
X132630952Y-40045238D01*
X132640476Y-40073809D01*
X132640476Y-40092857D01*
X132630952Y-40121428D01*
X132611904Y-40140476D01*
X132592857Y-40150000D01*
X132554761Y-40159523D01*
X132526190Y-40159523D01*
X132488095Y-40150000D01*
X132469047Y-40140476D01*
X132450000Y-40121428D01*
X132440476Y-40092857D01*
X132440476Y-40073809D01*
X132450000Y-40045238D01*
X132459523Y-40035714D01*
X132640476Y-39921428D02*
X132630952Y-39940476D01*
X132621428Y-39950000D01*
X132602380Y-39959523D01*
X132545238Y-39959523D01*
X132526190Y-39950000D01*
X132516666Y-39940476D01*
X132507142Y-39921428D01*
X132507142Y-39892857D01*
X132516666Y-39873809D01*
X132526190Y-39864285D01*
X132545238Y-39854761D01*
X132602380Y-39854761D01*
X132621428Y-39864285D01*
X132630952Y-39873809D01*
X132640476Y-39892857D01*
X132640476Y-39921428D01*
X132507142Y-39769047D02*
X132707142Y-39769047D01*
X132516666Y-39769047D02*
X132507142Y-39750000D01*
X132507142Y-39711904D01*
X132516666Y-39692857D01*
X132526190Y-39683333D01*
X132545238Y-39673809D01*
X132602380Y-39673809D01*
X132621428Y-39683333D01*
X132630952Y-39692857D01*
X132640476Y-39711904D01*
X132640476Y-39750000D01*
X132630952Y-39769047D01*
X132507142Y-39588095D02*
X132707142Y-39588095D01*
X132516666Y-39588095D02*
X132507142Y-39569047D01*
X132507142Y-39530952D01*
X132516666Y-39511904D01*
X132526190Y-39502380D01*
X132545238Y-39492857D01*
X132602380Y-39492857D01*
X132621428Y-39502380D01*
X132630952Y-39511904D01*
X132640476Y-39530952D01*
X132640476Y-39569047D01*
X132630952Y-39588095D01*
X132630952Y-39330952D02*
X132640476Y-39350000D01*
X132640476Y-39388095D01*
X132630952Y-39407142D01*
X132611904Y-39416666D01*
X132535714Y-39416666D01*
X132516666Y-39407142D01*
X132507142Y-39388095D01*
X132507142Y-39350000D01*
X132516666Y-39330952D01*
X132535714Y-39321428D01*
X132554761Y-39321428D01*
X132573809Y-39416666D01*
X132640476Y-39235714D02*
X132507142Y-39235714D01*
X132545238Y-39235714D02*
X132526190Y-39226190D01*
X132516666Y-39216666D01*
X132507142Y-39197619D01*
X132507142Y-39178571D01*
D11*
%TO.C,H3*%
X153500000Y-43000000D02*
G75*
G03*
X153500000Y-43000000I-2500000J0D01*
G01*
%TO.C,H2*%
X109500000Y-125000000D02*
G75*
G03*
X109500000Y-125000000I-2500000J0D01*
G01*
%TO.C,H1*%
X97500000Y-43000000D02*
G75*
G03*
X97500000Y-43000000I-2500000J0D01*
G01*
%TD*%
M02*
