%TF.GenerationSoftware,KiCad,Pcbnew,(6.0.0)*%
%TF.CreationDate,2022-07-10T13:58:59+09:30*%
%TF.ProjectId,ECU,4543552e-6b69-4636-9164-5f7063625858,rev?*%
%TF.SameCoordinates,Original*%
%TF.FileFunction,Paste,Bot*%
%TF.FilePolarity,Positive*%
%FSLAX46Y46*%
G04 Gerber Fmt 4.6, Leading zero omitted, Abs format (unit mm)*
G04 Created by KiCad (PCBNEW (6.0.0)) date 2022-07-10 13:58:59*
%MOMM*%
%LPD*%
G01*
G04 APERTURE LIST*
G04 Aperture macros list*
%AMRoundRect*
0 Rectangle with rounded corners*
0 $1 Rounding radius*
0 $2 $3 $4 $5 $6 $7 $8 $9 X,Y pos of 4 corners*
0 Add a 4 corners polygon primitive as box body*
4,1,4,$2,$3,$4,$5,$6,$7,$8,$9,$2,$3,0*
0 Add four circle primitives for the rounded corners*
1,1,$1+$1,$2,$3*
1,1,$1+$1,$4,$5*
1,1,$1+$1,$6,$7*
1,1,$1+$1,$8,$9*
0 Add four rect primitives between the rounded corners*
20,1,$1+$1,$2,$3,$4,$5,0*
20,1,$1+$1,$4,$5,$6,$7,0*
20,1,$1+$1,$6,$7,$8,$9,0*
20,1,$1+$1,$8,$9,$2,$3,0*%
G04 Aperture macros list end*
%ADD10R,3.810000X4.240000*%
%ADD11RoundRect,0.250000X0.450000X-0.262500X0.450000X0.262500X-0.450000X0.262500X-0.450000X-0.262500X0*%
%ADD12RoundRect,0.150000X0.875000X0.150000X-0.875000X0.150000X-0.875000X-0.150000X0.875000X-0.150000X0*%
%ADD13R,1.800000X2.500000*%
%ADD14R,1.270000X1.400000*%
%ADD15R,4.720000X4.800000*%
G04 APERTURE END LIST*
D10*
%TO.C,F1*%
X46000000Y-147685000D03*
X46000000Y-141315000D03*
%TD*%
%TO.C,F2*%
X53500000Y-147685000D03*
X53500000Y-141315000D03*
%TD*%
%TO.C,F3*%
X61000000Y-147685000D03*
X61000000Y-141315000D03*
%TD*%
%TO.C,F5*%
X68500000Y-147685000D03*
X68500000Y-141315000D03*
%TD*%
%TO.C,F6*%
X76000000Y-147685000D03*
X76000000Y-141315000D03*
%TD*%
%TO.C,F7*%
X83500000Y-147685000D03*
X83500000Y-141315000D03*
%TD*%
D11*
%TO.C,R11*%
X46000000Y-137912500D03*
X46000000Y-136087500D03*
%TD*%
%TO.C,R12*%
X53500000Y-137912500D03*
X53500000Y-136087500D03*
%TD*%
%TO.C,R13*%
X61000000Y-137912500D03*
X61000000Y-136087500D03*
%TD*%
%TO.C,R14*%
X68500000Y-137912500D03*
X68500000Y-136087500D03*
%TD*%
%TO.C,R15*%
X76000000Y-137912500D03*
X76000000Y-136087500D03*
%TD*%
%TO.C,R16*%
X83500000Y-137825000D03*
X83500000Y-136000000D03*
%TD*%
D12*
%TO.C,U2*%
X146150000Y-29555000D03*
X146150000Y-30825000D03*
X146150000Y-32095000D03*
X146150000Y-33365000D03*
X146150000Y-34635000D03*
X146150000Y-35905000D03*
X146150000Y-37175000D03*
X146150000Y-38445000D03*
X136850000Y-38445000D03*
X136850000Y-37175000D03*
X136850000Y-35905000D03*
X136850000Y-34635000D03*
X136850000Y-33365000D03*
X136850000Y-32095000D03*
X136850000Y-30825000D03*
X136850000Y-29555000D03*
%TD*%
D13*
%TO.C,D3*%
X46500000Y-61000000D03*
X46500000Y-65000000D03*
%TD*%
%TO.C,D2*%
X46500000Y-47000000D03*
X46500000Y-51000000D03*
%TD*%
%TO.C,D4*%
X46500000Y-76000000D03*
X46500000Y-80000000D03*
%TD*%
%TO.C,D1*%
X46500000Y-33000000D03*
X46500000Y-37000000D03*
%TD*%
D14*
%TO.C,D19*%
X42350000Y-129715000D03*
X42350000Y-131795000D03*
D15*
X46155000Y-130755000D03*
%TD*%
M02*
